<svg width="11" height="14" viewBox="0 0 11 14" fill="none" xmlns="http://www.w3.org/2000/svg">
<path fill-rule="evenodd" clip-rule="evenodd" d="M7.38889 0L8.16667 0.777778H10.8889V2.33333H0V0.777778H2.72222L3.5 0H7.38889ZM5.44441 7.45887L7.0933 5.80998L8.18997 6.90664L6.54108 8.55553L8.18997 10.2044L7.0933 11.3011L5.44441 9.6522L3.79553 11.3011L2.69886 10.2044L4.34775 8.55553L2.69108 6.90664L3.78775 5.80998L5.44441 7.45887ZM0.777873 12.4445C0.777873 13.3 1.47787 14 2.33343 14H8.55565C9.41121 14 10.1112 13.3 10.1112 12.4445V3.11113H0.777873V12.4445ZM8.55556 4.66667H2.33333V12.4444H8.55556V4.66667Z" fill="black" fill-opacity="0.92"/>
</svg>
