<svg width="14" height="17" viewBox="0 0 14 17" fill="none" xmlns="http://www.w3.org/2000/svg">
<path fill-rule="evenodd" clip-rule="evenodd" d="M8.97222 0L9.91667 0.944444H13.2222V2.83333H0V0.944444H3.30556L4.25 0H8.97222ZM6.61125 9.05724L8.61347 7.05502L9.94514 8.38668L7.94291 10.3889L9.94514 12.3911L8.61347 13.7228L6.61125 11.7206L4.60903 13.7228L3.27736 12.3911L5.27958 10.3889L3.26791 8.38668L4.59958 7.05502L6.61125 9.05724ZM0.944473 15.1112C0.944473 16.15 1.79447 17 2.83336 17H10.3889C11.4278 17 12.2778 16.15 12.2778 15.1112V3.77783H0.944473V15.1112ZM10.3887 5.66671H2.83316V15.1112H10.3887V5.66671Z" fill="#6B6B6B"/>
</svg>
