<svg width="10" height="18" viewBox="0 0 10 18" fill="none" xmlns="http://www.w3.org/2000/svg">
<path d="M9.11693 0.0037452L6.84463 0C4.29177 0 2.642 1.73871 2.642 4.42982V6.47227H0.357298C0.159873 6.47227 0 6.63668 0 6.83949V9.79876C0 10.0016 0.160055 10.1658 0.357298 10.1658H2.642V17.633C2.642 17.8358 2.80187 18 2.9993 18H5.98019C6.17761 18 6.33748 17.8356 6.33748 17.633V10.1658H9.00883C9.20626 10.1658 9.36613 10.0016 9.36613 9.79876L9.36722 6.83949C9.36722 6.74211 9.32949 6.64886 9.26259 6.57994C9.19569 6.51103 9.10454 6.47227 9.00974 6.47227H6.33748V4.74086C6.33748 3.90868 6.53053 3.48622 7.58584 3.48622L9.11657 3.48566C9.31381 3.48566 9.47368 3.32124 9.47368 3.11863V0.370775C9.47368 0.168347 9.31399 0.00411972 9.11693 0.0037452Z" fill="#FAFAFA"/>
</svg>
