<svg width="18" height="18" viewBox="0 0 18 18" fill="none" xmlns="http://www.w3.org/2000/svg">
<path d="M9 7.71094H17.4961C17.5898 8.23438 17.6367 8.73438 17.6367 9.21094C17.6367 10.9062 17.2813 12.4199 16.5703 13.752C15.8594 15.084 14.8457 16.125 13.5293 16.875C12.2129 17.625 10.7031 18 9 18C7.77344 18 6.60547 17.7637 5.4961 17.291C4.38672 16.8184 3.42969 16.1797 2.625 15.375C1.82031 14.5703 1.18164 13.6133 0.708985 12.5039C0.236328 11.3945 0 10.2266 0 9C0 7.77344 0.236328 6.60547 0.708985 5.49609C1.18164 4.38672 1.82031 3.42969 2.625 2.625C3.42969 1.82031 4.38672 1.18164 5.4961 0.708984C6.60547 0.236328 7.77344 0 9 0C11.3438 0 13.3555 0.785156 15.0352 2.35547L12.5859 4.71094C11.625 3.78125 10.4297 3.31641 9 3.31641C7.99219 3.31641 7.06055 3.57031 6.20508 4.07812C5.34961 4.58594 4.67188 5.27539 4.17188 6.14648C3.67188 7.01758 3.42188 7.96875 3.42188 9C3.42188 10.0312 3.67188 10.9824 4.17188 11.8535C4.67188 12.7246 5.34961 13.4141 6.20508 13.9219C7.06055 14.4297 7.99219 14.6836 9 14.6836C9.67969 14.6836 10.3047 14.5898 10.875 14.4023C11.4453 14.2148 11.9141 13.9805 12.2813 13.6992C12.6484 13.418 12.9688 13.0977 13.2422 12.7383C13.5156 12.3789 13.7168 12.0391 13.8457 11.7188C13.9746 11.3984 14.0625 11.0938 14.1094 10.8047H9V7.71094Z" fill="#FAFAFA"/>
</svg>
