<svg width="22" height="22" viewBox="0 0 22 22" fill="none" xmlns="http://www.w3.org/2000/svg">
<path d="M21.3171 18.8V11.2915C21.3171 9.86822 21.3171 9.1566 21.1349 8.50036C20.9736 7.91903 20.7083 7.3717 20.352 6.88483C19.9498 6.33524 19.3913 5.89429 18.2742 5.01239L15.6157 2.91354C13.8447 1.51542 12.9593 0.816353 11.9793 0.547961C11.1147 0.311184 10.2024 0.311184 9.33782 0.547961C8.35782 0.816353 7.47234 1.51542 5.70138 2.91354L5.70138 2.91355L3.04285 5.01239L3.04284 5.01239C1.92577 5.89429 1.36724 6.33524 0.965038 6.88483C0.608746 7.3717 0.343509 7.91903 0.18215 8.50036C0 9.1566 0 9.86822 0 11.2915V18.8C0 19.9201 0 20.4802 0.217987 20.908C0.409734 21.2843 0.715695 21.5903 1.09202 21.782C1.51984 22 2.0799 22 3.2 22H4.34756C4.70442 22 4.88285 22 5.03227 21.9773C5.89797 21.8457 6.5774 21.1663 6.70899 20.3006C6.73171 20.1511 6.73171 19.9727 6.73171 19.6159V16.3902C6.73171 14.2215 8.48981 12.4634 10.6585 12.4634C12.8273 12.4634 14.5854 14.2215 14.5854 16.3902V19.6159C14.5854 19.9727 14.5854 20.1511 14.6081 20.3006C14.7397 21.1663 15.4191 21.8457 16.2848 21.9773C16.4342 22 16.6127 22 16.9695 22H18.1171C19.2372 22 19.7972 22 20.2251 21.782C20.6014 21.5903 20.9073 21.2843 21.0991 20.908C21.3171 20.4802 21.3171 19.9201 21.3171 18.8Z" fill="#4DABF5"/>
</svg>
