<svg width="24" height="24" viewBox="0 0 24 24" fill="none" xmlns="http://www.w3.org/2000/svg">
<path d="M23.1707 20.8V12.0232C23.1707 10.5999 23.1707 9.88831 22.9886 9.23207C22.8272 8.65074 22.562 8.10341 22.2057 7.61654C21.8035 7.06695 21.245 6.626 20.1279 5.7441L20.1279 5.74409L16.5425 2.91354C14.7716 1.51542 13.8861 0.816353 12.9061 0.547961C12.0415 0.311184 11.1292 0.311184 10.2646 0.547961C9.28465 0.816353 8.39917 1.51542 6.62821 2.91354L6.62821 2.91355L3.04285 5.74409C1.92577 6.62599 1.36724 7.06694 0.965038 7.61654C0.608746 8.10341 0.343509 8.65074 0.18215 9.23207C0 9.88831 0 10.5999 0 12.0232V20.8C0 21.9201 0 22.4802 0.217987 22.908C0.409734 23.2843 0.715695 23.5903 1.09202 23.782C1.51984 24 2.07989 24 3.2 24H4.72561C5.27546 24 5.55039 24 5.77744 23.9463C6.51402 23.7721 7.08914 23.1969 7.26337 22.4604C7.31707 22.2333 7.31707 21.9584 7.31707 21.4085V17.9024C7.31707 15.5451 9.22805 13.6341 11.5854 13.6341C13.9427 13.6341 15.8537 15.5451 15.8537 17.9024V21.4085C15.8537 21.9584 15.8537 22.2333 15.9074 22.4604C16.0816 23.1969 16.6567 23.7721 17.3933 23.9463C17.6203 24 17.8953 24 18.4451 24H19.9707C21.0908 24 21.6509 24 22.0787 23.782C22.455 23.5903 22.761 23.2843 22.9527 22.908C23.1707 22.4802 23.1707 21.9201 23.1707 20.8Z" fill="#4DABF5"/>
</svg>
