<svg width="27" height="25" viewBox="0 0 27 25" fill="none" xmlns="http://www.w3.org/2000/svg">
<path fill-rule="evenodd" clip-rule="evenodd" d="M13.5 2.8215C14.9715 1.0935 17.226 0 19.575 0C23.733 0 27 3.267 27 7.425C27 12.5238 22.4175 16.6792 15.4746 22.975L15.4575 22.9905L13.5 24.7725L11.5425 23.004L11.4892 22.9556C4.56656 16.6647 0 12.5149 0 7.425C0 3.267 3.267 0 7.425 0C9.774 0 12.0285 1.0935 13.5 2.8215ZM13.5 21.1275L13.635 20.9925C20.061 15.174 24.3 11.3265 24.3 7.425C24.3 4.725 22.275 2.7 19.575 2.7C17.496 2.7 15.471 4.0365 14.769 5.886H12.2445C11.529 4.0365 9.504 2.7 7.425 2.7C4.725 2.7 2.7 4.725 2.7 7.425C2.7 11.3265 6.939 15.174 13.365 20.9925L13.5 21.1275Z" fill="#17171A"/>
</svg>
