<svg width="22" height="21" viewBox="0 0 22 21" fill="none" xmlns="http://www.w3.org/2000/svg">
<path fill-rule="evenodd" clip-rule="evenodd" d="M11 2.299C12.199 0.891 14.036 0 15.95 0C19.338 0 22 2.662 22 6.05C22 10.2046 18.2661 13.5904 12.6089 18.7204L12.595 18.733L11 20.185L9.405 18.744L9.36158 18.7045C3.7209 13.5787 0 10.1974 0 6.05C0 2.662 2.662 0 6.05 0C7.964 0 9.801 0.891 11 2.299ZM11 17.2151L11.11 17.1051C16.346 12.3641 19.8 9.22905 19.8 6.05005C19.8 3.85005 18.15 2.20005 15.95 2.20005C14.256 2.20005 12.606 3.28905 12.034 4.79605H9.977C9.394 3.28905 7.744 2.20005 6.05 2.20005C3.85 2.20005 2.2 3.85005 2.2 6.05005C2.2 9.22905 5.654 12.3641 10.89 17.1051L11 17.2151Z" fill="black" fill-opacity="0.85"/>
</svg>
