<svg width="24" height="24" viewBox="0 0 24 24" fill="none" xmlns="http://www.w3.org/2000/svg">
<path fill-rule="evenodd" clip-rule="evenodd" d="M12 0C8.685 0 6 2.685 6 6C6 9.315 8.685 12 12 12C15.315 12 18 9.315 18 6C18 2.685 15.315 0 12 0ZM15.1499 6.00005C15.1499 4.26005 13.7399 2.85005 11.9999 2.85005C10.2599 2.85005 8.84985 4.26005 8.84985 6.00005C8.84985 7.74005 10.2599 9.15005 11.9999 9.15005C13.7399 9.15005 15.1499 7.74005 15.1499 6.00005ZM21.1499 19.5001C21.1499 18.5401 16.4549 16.3501 11.9999 16.3501C7.54485 16.3501 2.84985 18.5401 2.84985 19.5001V21.1501H21.1499V19.5001ZM0 19.5C0 15.51 7.995 13.5 12 13.5C16.005 13.5 24 15.51 24 19.5V24H0V19.5Z" fill="white" fill-opacity="0.92"/>
</svg>
