<svg width="23" height="23" viewBox="0 0 23 23" fill="none" xmlns="http://www.w3.org/2000/svg">
<path fill-rule="evenodd" clip-rule="evenodd" d="M11.5 23C5.14873 23 0 17.8513 0 11.5C0 5.14873 5.14873 0 11.5 0C17.8513 0 23 5.14873 23 11.5C23 17.8513 17.8513 23 11.5 23ZM19.2358 16.8576C20.2908 15.3372 20.9091 13.4908 20.9091 11.5C20.9091 6.30351 16.6965 2.09092 11.5 2.09092C6.30351 2.09092 2.09092 6.30351 2.09092 11.5C2.09092 13.4908 2.70916 15.3371 3.76412 16.8575C4.93981 15.3046 7.70124 14.6374 11.491 14.6363C9.1544 14.6321 7.31827 12.9876 7.31827 9.40906C7.31827 7.06281 8.96915 5.22724 11.5001 5.22724C14.024 5.22724 15.6819 7.23617 15.6819 9.61815C15.6819 13.0423 13.8239 14.6322 11.5092 14.6363C15.2989 14.6374 18.0602 15.3047 19.2358 16.8576ZM17.7358 18.5462C17.4299 17.4459 15.2317 16.7272 11.4999 16.7272C7.76833 16.7272 5.57014 17.4458 5.26413 18.5461C6.9243 20.0164 9.10791 20.9091 11.5 20.9091C13.892 20.9091 16.0756 20.0165 17.7358 18.5462ZM9.40908 9.40918C9.40908 11.7816 10.2645 12.5455 11.5 12.5455C12.7312 12.5455 13.5909 11.812 13.5909 9.61827C13.5909 8.31189 12.7709 7.31827 11.5 7.31827C10.1762 7.31827 9.40908 8.17118 9.40908 9.40918Z" fill="#4DABF5"/>
</svg>
