<svg width="25" height="25" viewBox="0 0 25 25" fill="none" xmlns="http://www.w3.org/2000/svg">
<path fill-rule="evenodd" clip-rule="evenodd" d="M12.5 25C5.59644 25 0 19.4036 0 12.5C0 5.59644 5.59644 0 12.5 0C19.4036 0 25 5.59644 25 12.5C25 19.4036 19.4036 25 12.5 25ZM20.9085 18.3235C22.0552 16.6708 22.7273 14.6639 22.7273 12.5C22.7273 6.85163 18.1484 2.27273 12.5 2.27273C6.85163 2.27273 2.27273 6.85163 2.27273 12.5C2.27273 14.6639 2.94475 16.6708 4.09148 18.3235C5.3704 16.6342 8.37568 15.9091 12.5 15.9091C16.6243 15.9091 19.6296 16.6342 20.9085 18.3235ZM19.278 20.1588C18.9454 18.9629 16.5561 18.1818 12.5 18.1818C8.44389 18.1818 6.05455 18.9629 5.72195 20.1588C7.52647 21.757 9.89993 22.7273 12.5 22.7273C15.1001 22.7273 17.4735 21.757 19.278 20.1588ZM12.5 5.68182C9.74898 5.68182 7.95455 7.677 7.95455 10.2273C7.95455 14.122 9.95553 15.9091 12.5 15.9091C15.0206 15.9091 17.0455 14.1814 17.0455 10.4545C17.0455 7.86543 15.2434 5.68182 12.5 5.68182ZM10.2273 10.2273C10.2273 12.806 11.1571 13.6364 12.5 13.6364C13.8383 13.6364 14.7727 12.8391 14.7727 10.4545C14.7727 9.03456 13.8814 7.95455 12.5 7.95455C11.0611 7.95455 10.2273 8.88162 10.2273 10.2273Z" fill="#4DABF5"/>
</svg>
