<svg width="16" height="16" viewBox="0 0 16 16" fill="none" xmlns="http://www.w3.org/2000/svg">
<path fill-rule="evenodd" clip-rule="evenodd" d="M1.6 0H14.4C15.2837 0 16 0.716344 16 1.6V14.4C16 15.2837 15.2837 16 14.4 16H1.6C0.716344 16 0 15.2837 0 14.4V1.6C0 0.716344 0.716344 0 1.6 0ZM1.6 1.6V10.8686L4.80001 7.66863L7.60001 10.4686L12.8 5.26863L14.4 6.86862V1.6H1.6ZM1.6 14.4V13.1314L4.80001 9.93137L9.26864 14.4H1.6ZM14.4 14.4H11.5314L8.73138 11.6L12.8 7.53137L14.4 9.13136V14.4ZM9.6 4.8C9.6 3.47452 8.52548 2.4 7.2 2.4C5.87452 2.4 4.8 3.47452 4.8 4.8C4.8 6.12548 5.87452 7.2 7.2 7.2C8.52548 7.2 9.6 6.12548 9.6 4.8ZM6.4 4.8C6.4 4.35817 6.75817 4 7.2 4C7.64183 4 8 4.35817 8 4.8C8 5.24183 7.64183 5.6 7.2 5.6C6.75817 5.6 6.4 5.24183 6.4 4.8Z" fill="#FAFAFA"/>
</svg>
