<svg width="24" height="24" viewBox="0 0 24 24" fill="none" xmlns="http://www.w3.org/2000/svg">
<path fill-rule="evenodd" clip-rule="evenodd" d="M20.6752 12C20.6752 12.408 20.6392 12.792 20.5912 13.176L23.1232 15.156C23.3512 15.336 23.4112 15.66 23.2672 15.924L20.8672 20.076C20.7592 20.268 20.5552 20.376 20.3512 20.376C20.2792 20.376 20.2072 20.364 20.1352 20.34L17.1472 19.14C16.5232 19.608 15.8512 20.016 15.1192 20.316L14.6632 23.496C14.6272 23.784 14.3752 24 14.0752 24H9.2752C8.9752 24 8.7232 23.784 8.6872 23.496L8.2312 20.316C7.4992 20.016 6.8272 19.62 6.2032 19.14L3.2152 20.34C3.1552 20.364 3.0832 20.376 3.0112 20.376C2.7952 20.376 2.5912 20.268 2.4832 20.076L0.0831979 15.924C-0.0608021 15.66 -0.000802071 15.336 0.227198 15.156L2.7592 13.176C2.7112 12.792 2.6752 12.396 2.6752 12C2.6752 11.604 2.7112 11.208 2.7592 10.824L0.227198 8.844C-0.000802071 8.664 -0.0728021 8.34 0.0831979 8.076L2.4832 3.924C2.5912 3.732 2.7952 3.624 2.9992 3.624C3.0712 3.624 3.1432 3.636 3.2152 3.66L6.2032 4.86C6.8272 4.392 7.4992 3.984 8.2312 3.684L8.6872 0.504C8.7232 0.216 8.9752 0 9.2752 0H14.0752C14.3752 0 14.6272 0.216 14.6632 0.504L15.1192 3.684C15.8512 3.984 16.5232 4.38 17.1472 4.86L20.1352 3.66C20.1952 3.636 20.2672 3.624 20.3392 3.624C20.5552 3.624 20.7592 3.732 20.8672 3.924L23.2672 8.076C23.4112 8.34 23.3512 8.664 23.1232 8.844L20.5912 10.824C20.6392 11.208 20.6752 11.592 20.6752 12ZM18.275 12C18.275 11.748 18.263 11.496 18.215 11.124L18.047 9.76796L19.115 8.92796L20.399 7.90796L19.559 6.45596L18.035 7.06796L16.763 7.58396L15.671 6.74396C15.191 6.38396 14.711 6.10796 14.195 5.89196L12.923 5.37596L12.731 4.01996L12.503 2.39996H10.835L10.595 4.01996L10.403 5.37596L9.13102 5.89196C8.63902 6.09596 8.14702 6.38396 7.63102 6.76796L6.55102 7.58396L5.30302 7.07996L3.77902 6.46796L2.93902 7.91996L4.23502 8.92796L5.30302 9.76796L5.13502 11.124C5.09902 11.484 5.07502 11.76 5.07502 12C5.07502 12.24 5.09902 12.516 5.13502 12.888L5.30302 14.244L4.23502 15.084L2.93902 16.092L3.77902 17.544L5.30302 16.932L6.57502 16.416L7.66702 17.256C8.14702 17.616 8.62702 17.892 9.14302 18.108L10.415 18.624L10.607 19.98L10.835 21.6H12.515L12.755 19.98L12.947 18.624L14.219 18.108C14.711 17.904 15.203 17.616 15.719 17.232L16.799 16.416L18.047 16.92L19.571 17.532L20.411 16.08L19.115 15.072L18.047 14.232L18.215 12.876C18.251 12.516 18.275 12.252 18.275 12ZM11.675 7.19998C9.023 7.19998 6.875 9.34798 6.875 12C6.875 14.652 9.023 16.8 11.675 16.8C14.327 16.8 16.475 14.652 16.475 12C16.475 9.34798 14.327 7.19998 11.675 7.19998ZM9.27517 12C9.27517 13.32 10.3552 14.4 11.6752 14.4C12.9952 14.4 14.0752 13.32 14.0752 12C14.0752 10.68 12.9952 9.60004 11.6752 9.60004C10.3552 9.60004 9.27517 10.68 9.27517 12Z" fill="#6B6B6B"/>
</svg>
