<svg width="24" height="6" viewBox="0 0 24 6" fill="none" xmlns="http://www.w3.org/2000/svg">
<path fill-rule="evenodd" clip-rule="evenodd" d="M2.76923 6C1.23983 6 0 4.65685 0 3C0 1.34315 1.23983 0 2.76923 0C4.29864 0 5.53846 1.34315 5.53846 3C5.53846 4.65685 4.29864 6 2.76923 6ZM12 6C10.4706 6 9.23077 4.65685 9.23077 3C9.23077 1.34315 10.4706 0 12 0C13.5294 0 14.7692 1.34315 14.7692 3C14.7692 4.65685 13.5294 6 12 6ZM18.4615 3C18.4615 4.65685 19.7014 6 21.2308 6C22.7602 6 24 4.65685 24 3C24 1.34315 22.7602 0 21.2308 0C19.7014 0 18.4615 1.34315 18.4615 3Z" fill="#4DABF5"/>
</svg>
